<svg width="48" height="48" viewBox="0 0 48 48" fill="none" xmlns="http://www.w3.org/2000/svg">
<rect width="48" height="48" rx="5" fill="#255067"/>
<path d="M12.112 35.224C10.4693 35.224 8.99733 34.9573 7.696 34.424C6.39467 33.8907 5.34933 33.1013 4.56 32.056C3.792 31.0107 3.38667 29.752 3.344 28.28H9.168C9.25333 29.112 9.54133 29.752 10.032 30.2C10.5227 30.6267 11.1627 30.84 11.952 30.84C12.7627 30.84 13.4027 30.6587 13.872 30.296C14.3413 29.912 14.576 29.3893 14.576 28.728C14.576 28.1733 14.384 27.7147 14 27.352C13.6373 26.9893 13.1787 26.6907 12.624 26.456C12.0907 26.2213 11.3227 25.9547 10.32 25.656C8.86933 25.208 7.68533 24.76 6.768 24.312C5.85067 23.864 5.06133 23.2027 4.4 22.328C3.73867 21.4533 3.408 20.312 3.408 18.904C3.408 16.8133 4.16533 15.1813 5.68 14.008C7.19467 12.8133 9.168 12.216 11.6 12.216C14.0747 12.216 16.0693 12.8133 17.584 14.008C19.0987 15.1813 19.9093 16.824 20.016 18.936H14.096C14.0533 18.2107 13.7867 17.6453 13.296 17.24C12.8053 16.8133 12.176 16.6 11.408 16.6C10.7467 16.6 10.2133 16.7813 9.808 17.144C9.40267 17.4853 9.2 17.9867 9.2 18.648C9.2 19.3733 9.54133 19.9387 10.224 20.344C10.9067 20.7493 11.9733 21.1867 13.424 21.656C14.8747 22.1467 16.048 22.616 16.944 23.064C17.8613 23.512 18.6507 24.1627 19.312 25.016C19.9733 25.8693 20.304 26.968 20.304 28.312C20.304 29.592 19.9733 30.7547 19.312 31.8C18.672 32.8453 17.7333 33.6773 16.496 34.296C15.2587 34.9147 13.7973 35.224 12.112 35.224Z" fill="white"/>
<path d="M43.1275 12.536V35H37.6555V25.752H29.1435V35H23.6715V12.536H29.1435V21.336H37.6555V12.536H43.1275Z" fill="#FFC400"/>
</svg>
